<svg class="svg-icon" style="width: 1em;height: 1em;vertical-align: middle;overflow: hidden;" viewBox="0 0 1024 1024"
     version="1.1" xmlns="http://www.w3.org/2000/svg">
  <path
    d="M735.7 63.9H288.2c-17.7 0-32.1 14.4-32.1 32.1s14.4 32.1 32.1 32.1h447.5c17.7 0 32.1-14.4 32.1-32.1s-14.4-32.1-32.1-32.1z"
  />
  <path
    d="M608 127.7v169c0 24 13.4 46 34.8 56.9 46.3 23.8 85.3 59.7 112.9 103.9C784 503 799 555.4 799 609.2c0 38.8-7.6 76.4-22.5 111.7-14.5 34.2-35.2 64.9-61.5 91.2-26.4 26.4-57.1 47.1-91.2 61.5-35.3 14.9-72.9 22.5-111.7 22.5s-76.4-7.6-111.7-22.5c-34.2-14.5-64.9-35.2-91.2-61.5-26.4-26.4-47.1-57.1-61.5-91.2C232.6 685.6 225 648 225 609.2c0-53.8 15-106.2 43.3-151.6 27.6-44.2 66.6-80.2 112.9-103.9 21.4-11 34.8-32.9 34.8-56.9v-169h192m64-64.1H352v233C238.6 354.9 161 473 161 609.2c0 193.9 157.1 351 351 351s351-157.1 351-351c0-136.2-77.6-254.3-191-312.5v-233z"
  />
  <path
    d="M703.2 641.8c37.8 0 68.3 6.5 91.9 14.9-9.9 59.7-38.4 114.7-82.5 157.8-53.9 52.7-125.2 81.8-200.7 81.8-38.8 0-76.4-7.6-111.7-22.5-34.2-14.5-64.9-35.2-91.2-61.5-26.4-26.4-47.1-57.1-61.5-91.2-3.2-7.7-6.1-15.5-8.7-23.3 24.2 4.8 51.3 7.8 81.1 7.8 71.9 0 140.9-17.2 207.6-33.7 61.8-15.6 120-30.1 175.7-30.1m0-64c-127.3 0-255.2 63.6-383.3 63.6-74.8 0-127.8-21.8-158.9-39.9-0.1 2.6-0.1 5.2-0.1 7.8 0 193.9 157.1 351 351 351 191 0 346.4-152.6 350.9-342.5-31.1-18.2-84.2-40-159.6-40z"
  />
</svg>
