<svg class="svg-icon" style="width: 1em; height: 1em;vertical-align: middle;fill: currentColor;overflow: hidden;" viewBox="0 0 1024 1024" version="1.1" xmlns="http://www.w3.org/2000/svg"><path d="M896 512s-362.666667-85.333333-362.666667-426.666667c0 0 362.666667 0 362.666667 426.666667M128 512C128 85.333333 490.666667 85.333333 490.666667 85.333333c0 341.333333-362.666667 426.666667-362.666667 426.666667m384-234.666667s42.666667 92.16 128 170.666667c-10.24 156.16-128 234.666667-128 234.666667s-117.76-78.506667-128-234.666667c85.333333-78.506667 128-170.666667 128-170.666667m373.333333 288S853.333333 725.333333 768 810.666667c0 0-105.386667-69.973333-156.586667-178.773334 30.72-52.48 49.92-114.773333 60.586667-157.013333 58.88 44.8 128 79.786667 213.333333 90.453333m-224 213.333334c-42.666667 85.333333-149.333333 149.333333-149.333333 149.333333s-106.666667-64-149.333333-149.333333c0 0 46.506667-38.826667 78.933333-104.533334 20.053333 23.466667 43.093333 42.24 70.4 51.2 27.306667-8.96 50.346667-27.733333 70.4-51.2 32.426667 65.706667 78.933333 104.533333 78.933333 104.533334m-522.666666-213.333334c85.333333-10.666667 154.453333-45.653333 213.333333-90.453333 10.666667 42.24 29.866667 104.533333 60.586667 157.013333C361.386667 740.693333 256 810.666667 256 810.666667c-85.333333-85.333333-117.333333-245.333333-117.333333-245.333334z" fill="" /></svg>