<svg class="svg-icon"
     style="width: 1.0009765625em;height: 1em;vertical-align: middle;fill: currentColor;overflow: hidden;"
     viewBox="0 0 1025 1024" xmlns="http://www.w3.org/2000/svg">
  <path
    d="M62.227 770.757L354.42 212.362l69.79 36.51-292.116 558.316z m296.566 51.988a114.215 114.215 0 1 1 115.003-113.822 114.215 114.215 0 0 1-115.003 113.822z m0-169.354a55.138 55.138 0 1 0 55.139 55.138 55.138 55.138 0 0 0-55.139-55.138zM114.608 429.686a114.215 114.215 0 1 1 113.822-114.61 114.215 114.215 0 0 1-113.822 114.61z m0-169.354a55.138 55.138 0 1 0 54.745 54.745 55.138 55.138 0 0 0-54.745-54.745z"/>
</svg>
