<svg class="svg-icon" style="width: 1em; height: 1em;vertical-align: middle;fill: currentColor;overflow: hidden;"
     viewBox="0 0 1024 1024" xmlns="http://www.w3.org/2000/svg">
  <path
    d="M512 30.4c12.8 0 25.6 0 38.4 1.6 128 9.6 244.8 70.4 328 168 83.2 97.6 123.2 222.4 113.6 350.4-9.6 121.6-64 233.6-153.6 316.8-89.6 81.6-204.8 126.4-324.8 126.4-12.8 0-25.6 0-38.4-1.6-128-9.6-244.8-70.4-328-168C62.4 726.4 20.8 601.6 32 473.6 41.6 352 96 240 185.6 156.8 275.2 75.2 390.4 30.4 512 30.4m0-14.4C256 16 38.4 212.8 17.6 472c-22.4 273.6 182.4 512 454.4 534.4 14.4 1.6 27.2 1.6 40 1.6 256 0 473.6-196.8 494.4-456 22.4-273.6-182.4-512-454.4-534.4C537.6 16 524.8 16 512 16z"/>
  <path
    d="M424 451.2c-11.2 0-25.6-6.4-32-17.6-9.6-17.6-6.4-41.6 11.2-51.2l33.6-22.4c8-6.4 19.2-8 27.2-4.8 9.6 3.2 17.6 8 24 16 9.6 17.6 6.4 41.6-11.2 51.2l-33.6 22.4c-4.8 4.8-11.2 6.4-19.2 6.4z m33.6-67.2c-1.6 0-3.2 0-4.8 1.6l-33.6 22.4c-1.6 1.6-3.2 3.2-3.2 4.8 0 1.6 0 4.8 1.6 6.4 3.2 4.8 8 4.8 11.2 3.2l33.6-22.4c4.8-3.2 4.8-8 3.2-11.2 0-3.2-1.6-4.8-3.2-4.8h-4.8zM499.2 553.6c-6.4 0-11.2-1.6-17.6-6.4-16-9.6-20.8-30.4-9.6-46.4l17.6-27.2c9.6-16 30.4-20.8 46.4-9.6 8 4.8 12.8 11.2 14.4 20.8 1.6 8 0 17.6-4.8 25.6L528 536c-4.8 8-11.2 12.8-20.8 14.4-4.8 3.2-4.8 3.2-8 3.2z m17.6-67.2c-1.6 0-3.2 0-3.2 1.6L496 516.8c-1.6 1.6 0 4.8 1.6 6.4 1.6 1.6 3.2 0 3.2 0 1.6 0 1.6 0 3.2-1.6l17.6-27.2c1.6-1.6 0-4.8-1.6-6.4-1.6-1.6-1.6-1.6-3.2-1.6zM635.2 500.8c-3.2 0-6.4 0-8-1.6-9.6-3.2-17.6-8-24-16l-20.8-33.6c-6.4-8-8-19.2-4.8-27.2 3.2-9.6 8-17.6 16-24 8-6.4 19.2-8 27.2-4.8 9.6 3.2 17.6 8 24 16l20.8 33.6c6.4 8 8 19.2 4.8 27.2-3.2 9.6-8 17.6-16 24-6.4 4.8-12.8 6.4-19.2 6.4z m-20.8-80c-1.6 0-3.2 0-4.8 1.6-1.6 1.6-3.2 3.2-3.2 4.8 0 1.6 0 4.8 1.6 6.4l20.8 33.6c1.6 1.6 3.2 3.2 4.8 3.2 1.6 0 4.8 0 6.4-1.6 1.6-1.6 3.2-3.2 3.2-4.8 0-1.6 0-4.8-1.6-6.4l-20.8-33.6c-1.6-1.6-3.2-3.2-6.4-3.2zM542.4 308.8s-1.6 0 0 0h-41.6c-9.6 0-19.2-4.8-25.6-11.2s-9.6-16-9.6-25.6c0-20.8 17.6-36.8 38.4-36.8H544c20.8 0 36.8 17.6 36.8 38.4-1.6 19.2-17.6 35.2-38.4 35.2z m-40-43.2c-4.8 0-8 3.2-8 8 0 1.6 1.6 3.2 3.2 6.4 1.6 1.6 3.2 1.6 6.4 1.6H544c4.8 0 8-3.2 8-8s-3.2-8-8-8h-41.6zM334.4 382.4c-12.8 0-25.6-8-32-19.2-9.6-17.6-4.8-41.6 12.8-51.2l35.2-20.8c17.6-9.6 41.6-4.8 51.2 12.8 9.6 17.6 4.8 41.6-12.8 51.2L352 376c-6.4 4.8-12.8 6.4-17.6 6.4z m33.6-64c-1.6 0-3.2 0-4.8 1.6l-35.2 20.8c-4.8 1.6-4.8 8-3.2 9.6 3.2 4.8 8 6.4 9.6 3.2l35.2-20.8c4.8-1.6 4.8-8 3.2-9.6 0-3.2-3.2-4.8-4.8-4.8zM280 558.4c-16 0-30.4-9.6-35.2-25.6l-11.2-36.8c-3.2-8-1.6-19.2 3.2-27.2 4.8-8 11.2-14.4 22.4-17.6 8-3.2 19.2-1.6 27.2 3.2 8 4.8 14.4 11.2 17.6 22.4l9.6 36.8c6.4 19.2-6.4 40-25.6 44.8-1.6-1.6-4.8 0-8 0z m-11.2-80c-4.8 0-4.8 3.2-6.4 3.2 0 1.6-1.6 3.2 0 6.4l9.6 36.8c1.6 3.2 4.8 6.4 8 4.8 3.2-1.6 6.4-4.8 4.8-8l-11.2-35.2c0-3.2-3.2-3.2-3.2-4.8 0-1.6 0-3.2-1.6-3.2zM348.8 708.8c-8 0-12.8-1.6-19.2-6.4l-27.2-19.2c-8-6.4-11.2-12.8-12.8-22.4s0-17.6 6.4-25.6c9.6-14.4 32-19.2 46.4-8l27.2 19.2c8 6.4 11.2 12.8 12.8 22.4s0 17.6-6.4 25.6c-6.4 9.6-17.6 14.4-27.2 14.4z m-30.4-54.4c-1.6 1.6-1.6 3.2 0 3.2 0 1.6 0 1.6 1.6 3.2l27.2 19.2c1.6 1.6 3.2 1.6 3.2 0 0 0 1.6 0 3.2-1.6s1.6-3.2 0-3.2c0-1.6 0-1.6-1.6-3.2l-27.2-19.2c-3.2-1.6-6.4 0-6.4 1.6zM524.8 788.8h-4.8l-38.4-4.8c-20.8-3.2-35.2-22.4-32-41.6 1.6-9.6 6.4-19.2 14.4-25.6 8-6.4 17.6-8 27.2-8l40 6.4c20.8 3.2 35.2 22.4 32 41.6-1.6 9.6-6.4 19.2-14.4 25.6-8 4.8-16 6.4-24 6.4z m-40-51.2c-1.6 0-3.2 0-4.8 1.6-1.6 1.6-3.2 3.2-3.2 6.4 0 1.6 0 4.8 1.6 6.4 1.6 1.6 3.2 3.2 6.4 3.2l40 6.4c1.6 0 4.8 0 6.4-1.6 1.6-1.6 3.2-3.2 3.2-6.4 0-4.8-3.2-8-8-8l-41.6-8zM667.2 739.2c-6.4 0-12.8-1.6-19.2-6.4-8-4.8-14.4-12.8-17.6-24-3.2-9.6-1.6-19.2 4.8-27.2l20.8-35.2c9.6-17.6 33.6-24 51.2-12.8s24 33.6 12.8 51.2L699.2 720c-4.8 8-12.8 14.4-24 17.6-3.2 1.6-6.4 1.6-8 1.6z m19.2-80c-3.2 0-6.4 1.6-8 4.8l-20.8 35.2c-1.6 1.6-1.6 4.8-1.6 4.8s1.6 4.8 4.8 4.8c1.6 1.6 4.8 1.6 6.4 1.6 1.6 0 4.8-1.6 4.8-4.8l20.8-35.2c3.2-4.8 1.6-8-3.2-9.6-1.6-1.6-3.2-1.6-3.2-1.6zM750.4 576h-4.8c-20.8-3.2-35.2-20.8-32-41.6l4.8-40c3.2-20.8 20.8-35.2 41.6-32 9.6 1.6 19.2 6.4 25.6 14.4 6.4 8 8 17.6 8 27.2l-4.8 36.8c-1.6 9.6-6.4 19.2-14.4 25.6-8 6.4-16 9.6-24 9.6z m3.2-86.4c-4.8 0-8 3.2-8 8l-4.8 40c0 1.6 0 4.8 1.6 6.4s3.2 3.2 6.4 3.2c4.8 0 8-3.2 8-8l4.8-40c0-1.6 0-4.8-1.6-6.4 0-1.6-3.2-1.6-6.4-3.2 1.6 0 0 0 0 0zM697.6 393.6h-8c-8-1.6-16-8-20.8-14.4l-16-27.2c-4.8-8-6.4-16-4.8-25.6 1.6-8 8-16 14.4-20.8 8-4.8 16-8 25.6-4.8 8 1.6 16 8 20.8 14.4l17.6 27.2c9.6 14.4 6.4 35.2-8 44.8-8 4.8-16 6.4-20.8 6.4z m-17.6-64c-3.2 0-3.2 1.6-3.2 3.2v3.2l17.6 27.2c0 1.6 1.6 1.6 3.2 1.6h3.2c1.6 0 1.6-1.6 1.6-3.2v-3.2l-17.6-27.2c-3.2 0-3.2 0-4.8-1.6zM552 644.8c-9.6 0-19.2-4.8-25.6-11.2-8-8-11.2-16-11.2-25.6 0-9.6 3.2-19.2 9.6-25.6l27.2-28.8c14.4-14.4 38.4-14.4 52.8 0 14.4 14.4 14.4 38.4 0 52.8L576 633.6c-4.8 6.4-14.4 11.2-24 11.2z m28.8-73.6c-1.6 0-4.8 1.6-6.4 3.2l-27.2 28.8c-1.6 0-3.2 1.6-3.2 4.8 0 1.6 1.6 4.8 3.2 6.4 1.6 1.6 3.2 3.2 6.4 3.2 1.6 0 4.8-1.6 6.4-3.2l27.2-28.8c1.6-1.6 3.2-3.2 3.2-6.4 0-1.6-1.6-4.8-3.2-6.4-3.2-1.6-4.8-1.6-6.4-1.6zM428.8 632h-4.8c-8-1.6-16-6.4-22.4-12.8L382.4 592c-6.4-8-8-16-8-25.6 1.6-8 6.4-16 12.8-22.4 14.4-11.2 35.2-8 46.4 6.4l20.8 25.6c6.4 8 8 16 8 25.6-1.6 8-6.4 16-12.8 22.4-6.4 4.8-14.4 8-20.8 8z m-20.8-64c-1.6 0-1.6 0-3.2 1.6s-1.6 4.8-1.6 6.4l20.8 25.6c1.6 1.6 1.6 1.6 3.2 1.6 0 0 1.6 0 3.2-1.6s1.6-1.6 1.6-3.2 0-1.6-1.6-3.2l-22.4-27.2c3.2 0 1.6 0 0 0z"/>
</svg>
